<svg xmlns="http://www.w3.org/2000/svg" width="325.2" height="104.045" viewBox="0 0 325.2 104.045">
  <g id="グループ_129" data-name="グループ 129" transform="translate(-795.66 -291.4)">
    <path id="パス_20" data-name="パス 20" d="M54.36-3.96c.06-4.8.12-10.2.12-15.66,0-5.4-.06-10.86-.12-15.72,0-4.62-2.94-4.8-7.14-4.8-3.42,0-6.12.54-6.18,5.1-.06,4.5-.06,9.9-.06,15.42,0,5.46,0,10.92.06,15.6.12,5.28,3.54,5.28,6.54,5.28C51.36,1.26,54.36.72,54.36-3.96ZM31.14-32.82c2.64,0,2.76,1.8,2.76,7.74a84.749,84.749,0,0,1-1.5,17.1c-1.14,5.16-2.46,6.84-4.62,6.84a8.78,8.78,0,0,1-2.94-.66,1.491,1.491,0,0,0-.48-.06A1.553,1.553,0,0,0,22.98-.18a1.3,1.3,0,0,0,.9,1.32,15.122,15.122,0,0,0,4.02.66c5.04,0,8.88-4.56,8.88-27,0-1.86,0-3.66-.06-5.16-.06-3.48-1.8-5.1-4.8-5.1l-3.48-.06.12-10.56A1.448,1.448,0,0,0,27-47.52a1.448,1.448,0,0,0-1.56,1.44c0,2.64.06,5.52.06,8.4v2.16c-1.74,0-3.54.06-4.86.06a1.311,1.311,0,0,0-1.26,1.44,1.23,1.23,0,0,0,1.2,1.32h.06c1.32-.06,3.06-.12,4.8-.12C25.14-20.76,23.7-7.86,15.06.36a1.556,1.556,0,0,0-.54,1.08,1.545,1.545,0,0,0,1.62,1.44,1.891,1.891,0,0,0,1.32-.6c8.94-8.58,10.5-22.5,10.92-35.1ZM51.36-4.68c0,2.7-.78,3.18-4.14,3.18-2.04,0-3.3-.12-3.3-3.12-.06-4.86-.06-11.16-.06-17.28,0-4.5,0-8.94.06-12.6,0-2.94,1.5-2.94,3.96-2.94,2.82,0,3.42.42,3.48,2.88.06,3.96.12,8.76.12,13.56C51.48-15.18,51.42-9.3,51.36-4.68ZM10.92-10.44c-1.98.78-4.14,1.5-6.24,2.16A1.362,1.362,0,0,0,3.66-6.84a1.547,1.547,0,0,0,1.5,1.62c.96,0,9.96-3.6,14.7-6.18a1.508,1.508,0,0,0,.78-1.32,1.287,1.287,0,0,0-1.2-1.38,1.368,1.368,0,0,0-.66.18c-1.44.78-3.18,1.56-5.04,2.34V-24.54h4.44a1.3,1.3,0,0,0,1.32-1.38,1.273,1.273,0,0,0-1.32-1.38l-4.44.06V-39l5.64.06a1.3,1.3,0,0,0,1.32-1.38,1.273,1.273,0,0,0-1.32-1.38H5.28A1.369,1.369,0,0,0,3.9-40.26a1.308,1.308,0,0,0,1.38,1.32L10.92-39v11.76l-4.8-.06a1.369,1.369,0,0,0-1.38,1.44,1.308,1.308,0,0,0,1.38,1.32h4.8Zm104.46-1.44a1.289,1.289,0,0,0,1.38-1.38,1.274,1.274,0,0,0-1.38-1.32l-11.28.06v-9.24h8.94a1.308,1.308,0,0,0,1.38-1.32,1.308,1.308,0,0,0-1.38-1.32l-8.94.06v-9.18l10.26.06a1.338,1.338,0,0,0,1.44-1.38,1.326,1.326,0,0,0-1.44-1.32H104.1l.06-8.04a1.448,1.448,0,0,0-1.56-1.44,1.461,1.461,0,0,0-1.56,1.5V1.5a1.565,1.565,0,0,0,3.12,0l-.06-13.38Zm-22.92-12c0,2.22,0,4.14-.06,5.4,0,.72-.06,1.44-.12,2.16-3.54,1.32-8.16,3.06-10.92,3.84a1.155,1.155,0,0,0-.84,1.2A1.533,1.533,0,0,0,81.9-9.66c.6,0,5.22-1.74,10.02-3.78C90.9-7.44,87.96-2.52,80.46.48A1.379,1.379,0,0,0,79.5,1.8a1.664,1.664,0,0,0,1.68,1.62,2.286,2.286,0,0,0,1.02-.24c9.66-4.2,12.84-11.76,13.2-21.36.12-3,.18-8.94.18-14.58,0-5.7-.06-11.1-.06-12.96a1.588,1.588,0,0,0-1.68-1.62,1.461,1.461,0,0,0-1.56,1.5v.06c0,1.44.06,4.32.12,7.74l-8.64-.06a1.257,1.257,0,0,0-1.32,1.32,1.257,1.257,0,0,0,1.32,1.32l8.7-.06v9.18l-8.64-.12a1.257,1.257,0,0,0-1.32,1.32,1.257,1.257,0,0,0,1.32,1.32ZM71.58-12.84c-2.16.84-4.32,1.62-6.48,2.28a1.362,1.362,0,0,0-1.02,1.44,1.547,1.547,0,0,0,1.5,1.62,99.284,99.284,0,0,0,15.3-6.54,1.38,1.38,0,0,0,.84-1.26,1.441,1.441,0,0,0-1.32-1.44,1.564,1.564,0,0,0-.66.18c-1.5.78-3.3,1.62-5.28,2.52V-26.52l4.8.06a1.3,1.3,0,0,0,1.32-1.38,1.273,1.273,0,0,0-1.32-1.38h-4.8V-40.68l5.4.06A1.273,1.273,0,0,0,81.18-42a1.3,1.3,0,0,0-1.32-1.38H65.94A1.354,1.354,0,0,0,64.56-42a1.321,1.321,0,0,0,1.38,1.38l5.64-.06v11.46h-5.1a1.37,1.37,0,0,0-1.44,1.38,1.338,1.338,0,0,0,1.44,1.38l5.1-.06ZM137.7-9.3c5.52,8.94,15,11.52,27.18,11.52,2.94,0,6.06-.18,9.3-.42A1.585,1.585,0,0,0,175.86.18a1.6,1.6,0,0,0-1.5-1.68h-.12c-3.66.3-7.14.48-10.44.48-11.04,0-19.68-2.22-24.54-10.98a56.627,56.627,0,0,0,6.42-22.56c0-3.18-2.16-4.44-5.04-4.44-1.2,0-2.7.06-4.44.12.78-3,1.44-6.42,1.44-6.72a1.64,1.64,0,0,0-1.74-1.62,1.524,1.524,0,0,0-1.5,1.38c-1.56,10.02-4.02,17.46-9,25.5a1.511,1.511,0,0,0-.3.96A1.463,1.463,0,0,0,126.6-18a1.763,1.763,0,0,0,1.56-.96,56.38,56.38,0,0,0,4.44-8.94,47.269,47.269,0,0,0,3.48,15.54A36.6,36.6,0,0,1,124.98,0a1.881,1.881,0,0,0-.96,1.5,1.617,1.617,0,0,0,1.68,1.56C127.68,3.06,133.8-2.82,137.7-9.3Zm34.44-9.48v1.08c0,4.92-1.32,5.76-3.9,5.76-2.4,0-2.46-1.32-2.46-3,0-4.68.3-18.3.3-23.64,0-4.8-3.48-4.8-7.92-4.8-2.28,0-5.88.06-5.88,4.74v.18c0,1.8.06,3.6.06,5.46,0,8.1-.72,16.2-8.34,21.48a1.371,1.371,0,0,0-.6,1.14,1.535,1.535,0,0,0,1.5,1.56,1.964,1.964,0,0,0,1.26-.48c9-7.02,9.18-15.84,9.18-28.56,0-2.64,1.38-2.7,4.14-2.7,1.98,0,3.54.12,3.54,2.64,0,4.08-.12,18.12-.18,23.22v.3c0,3.78,1.08,5.46,5.28,5.46,3.06,0,7.02-.06,7.02-9,0-.84,0-2.22-1.62-2.22A1.289,1.289,0,0,0,172.14-18.78ZM137.7-15.42c-1.8-4.68-2.82-10.8-2.88-18.78l.6-1.92c1.8-.06,4.08-.06,4.74-.06,1.74.06,2.34.78,2.34,2.34A49.372,49.372,0,0,1,137.7-15.42Zm131.82-5.16a1.729,1.729,0,0,0,1.8-1.8,1.729,1.729,0,0,0-1.8-1.8L246-24.12l-23.4-.06a1.8,1.8,0,0,0-1.92,1.8,1.8,1.8,0,0,0,1.92,1.8l23.4-.06Zm39.66-16.56a1.334,1.334,0,0,0,1.38-1.44,1.318,1.318,0,0,0-1.38-1.38l-11.58.06.06-7.14a1.526,1.526,0,0,0-1.62-1.56,1.559,1.559,0,0,0-1.62,1.56l.06,7.14-11.76-.06a1.37,1.37,0,0,0-1.44,1.38,1.383,1.383,0,0,0,1.44,1.44h10.92a1.331,1.331,0,0,0-.72.78A41.858,41.858,0,0,1,287.4-27c-1.62-1.2-2.88-2.1-3.54-2.1a1.409,1.409,0,0,0-1.44,1.38,1.212,1.212,0,0,0,.66,1.08,44.964,44.964,0,0,1,9.06,7.92,33.73,33.73,0,0,1-9.96,7.32,1.371,1.371,0,0,0-.9,1.32,1.643,1.643,0,0,0,1.62,1.56c1.56,0,13.74-6.84,20.58-22.26a1.752,1.752,0,0,0,.12-.54,1.64,1.64,0,0,0-1.62-1.56,1.3,1.3,0,0,0-1.26.9,43.265,43.265,0,0,1-6.66,11.1,56.649,56.649,0,0,0-4.68-4.5c1.62-1.74,6.48-8.88,6.48-10.44a1.491,1.491,0,0,0-.96-1.32Zm16.38,32.4c0,3.18-1.5,4.2-3.96,4.2a18.936,18.936,0,0,1-4.44-.66,1.321,1.321,0,0,0-.48-.06A1.423,1.423,0,0,0,315.3.24a1.811,1.811,0,0,0,1.5,1.74,21.757,21.757,0,0,0,4.8.6c5.58,0,7.26-3.18,7.26-6.78v-.18l-.12-6.66V-45.36a1.526,1.526,0,0,0-1.56-1.62,1.526,1.526,0,0,0-1.56,1.62ZM298.44-8.1c2.88,2.04,7.02,5.46,8.76,8.22a1.489,1.489,0,0,0,1.26.78,1.778,1.778,0,0,0,1.62-1.8c0-1.98-5.82-6.66-9.78-9.12,6.06-6.6,8.94-13.2,8.94-13.86a1.706,1.706,0,0,0-1.68-1.62,1.352,1.352,0,0,0-1.26.9c-3.66,8.7-12.54,19.8-24.9,23.7A1.539,1.539,0,0,0,280.2.54a1.651,1.651,0,0,0,1.62,1.62C282.36,2.16,290.22,0,298.44-8.1Zm16.08-2.64a1.437,1.437,0,0,0,1.56,1.38,1.419,1.419,0,0,0,1.5-1.38V-41.82a1.448,1.448,0,0,0-1.56-1.44,1.431,1.431,0,0,0-1.5,1.44Z" transform="translate(792 340)" fill="#434242"/>
    <path id="パス_19" data-name="パス 19" d="M9.871,0V-6.531H3.266V0H1.336V-14.4h1.93v6.383H9.871V-14.4h1.855V0ZM14.4,0V-14.4h1.93V0ZM29.539-12.914H24.715V0H22.859V-12.914h-4.9V-14.4H29.539ZM36.813.445a5.492,5.492,0,0,1-4.379-2A8.267,8.267,0,0,1,30.727-7.2q0-3.859,1.781-5.715a5.5,5.5,0,0,1,4.3-1.93,5.582,5.582,0,0,1,4.379,1.93A8.934,8.934,0,0,1,42.9-7.2a8.267,8.267,0,0,1-1.707,5.641A5.358,5.358,0,0,1,36.813.445Zm0-1.484a3.26,3.26,0,0,0,2.82-1.336A7.667,7.667,0,0,0,40.969-7.2a7.477,7.477,0,0,0-1.336-4.824,3.26,3.26,0,0,0-2.82-1.336,3.383,3.383,0,0,0-2.82,1.336A7.477,7.477,0,0,0,32.656-7.2a7.667,7.667,0,0,0,1.336,4.824A3.383,3.383,0,0,0,36.813-1.039ZM55.664-12.914H50.84V0H48.984V-12.914h-4.9V-14.4H55.664ZM62.938.445a5.492,5.492,0,0,1-4.379-2A8.267,8.267,0,0,1,56.852-7.2q0-3.859,1.781-5.715a5.5,5.5,0,0,1,4.3-1.93,5.582,5.582,0,0,1,4.379,1.93A8.934,8.934,0,0,1,69.023-7.2a8.267,8.267,0,0,1-1.707,5.641A5.358,5.358,0,0,1,62.938.445Zm0-1.484a3.26,3.26,0,0,0,2.82-1.336A7.667,7.667,0,0,0,67.094-7.2a7.477,7.477,0,0,0-1.336-4.824,3.26,3.26,0,0,0-2.82-1.336,3.383,3.383,0,0,0-2.82,1.336A7.477,7.477,0,0,0,58.781-7.2a7.667,7.667,0,0,0,1.336,4.824A3.383,3.383,0,0,0,62.938-1.039ZM82.234,0H79.859L73.18-7.5V0H71.25V-14.4h1.93v6.9l6.012-6.9H81.27L75.332-7.645Zm1.633,0V-14.4H85.8V0Z" transform="translate(917 395)" fill="#434242"/>
  </g>
</svg>
